<svg 
          width="51" 
          height="51" fill="none" 
          xmlns="http://www.w3.org/2000/svg">
          <path d="M 25.205009357488727 0.017849910264075106 L 25.49608211558024 0 L 25.79736718396167 0.017849910264075106 L 25.94800971815238 0.0382502419708544 L 26.10375840748805 0.07140024902327126 L 26.38717071537163 0.15809998686791343 C 26.582845635883825 0.23033666070055367 26.76891868442739 0.32625153916226396 26.9412287257859 0.44369976702705677 L 27.206768273171637 0.6527996712114622 L 27.857850536283078 1.208699134741407 C 33.008574964614 5.481385827569886 39.518251328425364 7.775717332927339 46.213251051983406 7.6780452731783955 L 47.08646932625794 7.652544706553178 C 47.65736150168285 7.6265330344449 48.22048643015529 7.792555320166374 48.68571127370418 8.124037683652517 C 49.15093611725307 8.45552004713866 49.49135939608675 8.93329605889822 49.652496127664044 9.480893505453631 C 50.90716170791142 13.743413470612117 51.29109562408491 18.214328402252313 50.78148480557536 22.6279664615855 C 50.27187398706581 27.04160452091869 48.87911618318448 31.307901784867052 46.6859733922465 35.17334545007533 C 44.492830601308526 39.038789115283606 41.54405750766231 42.424500635003625 38.01487214774204 45.129295835011405 C 34.48568678782177 47.834091035019185 30.4481099641714 49.8027776857549 26.142058223546723 50.918367058890404 C 25.7217622035339 51.02721089170802 25.280614337916493 51.02721089170802 24.86031831790367 50.918367058890404 C 20.554036775947658 49.803057046578 16.51618358195444 47.83457436876101 12.986714242375715 45.129898938246484 C 9.45724490279699 42.42522350773196 6.508185698883947 39.039549073997165 4.3147875393142 35.17407501044035 C 2.121389379744453 31.308600946883526 0.7284138543203151 27.042210663988627 0.21863993013072697 22.62843824395488 C -0.29113399405886115 18.21466582392113 0.09269698709775187 13.743583701363955 1.3473230749971281 9.480893505453631 C 1.50845980657442 8.93329605889822 1.84888491164385 8.45552004713866 2.31410975519274 8.124037683652517 C 2.7793345987416305 7.792555320166374 3.3424601359593122 7.6265330344449 3.9133523113842235 7.652544706553178 C 10.902813677832533 7.971635411243641 17.759858951577392 5.673720434566208 23.14197414508533 1.208699134741407 L 23.813481028776604 0.6349497609473871 L 24.058595955582508 0.44369976702705677 C 24.23090599694102 0.32625153916226396 24.416979045484585 0.23033666070055367 24.612653965996778 0.15809998686791343 L 24.89861813396234 0.07140024902327126 C 24.998724102410502 0.047449577821551465 25.102741687104693 0.02956657610524283 25.205009357488727 0.017849910264075106 Z" fill="rgb(0,0,0)"/>
        </svg>